<?xml version="1.0" encoding="UTF-8"?>
<svg width="256px" height="256px" viewBox="0 0 256 256" version="1.1" xmlns="http://www.w3.org/2000/svg" xmlns:xlink="http://www.w3.org/1999/xlink">
    <title>S-CORE_FINAL_WHITE@1x</title>
    <g id="S-CORE_FINAL_WHITE" stroke="none" stroke-width="1" fill="none" fill-rule="evenodd">
        <g id="S-CORE-Copy-27" transform="translate(38.252000, 184.152000)" fill="#FFFFFF" fill-rule="nonzero">
            <path d="M11.376,26.208 C9.576,26.208 7.974,26.004 6.57,25.596 C5.166,25.188 3.93,24.6 2.862,23.832 C1.794,23.064 0.84,22.164 0,21.132 L4.176,16.416 C5.376,17.976 6.612,19.014 7.884,19.53 C9.156,20.046 10.392,20.304 11.592,20.304 C12.12,20.304 12.6,20.25 13.032,20.142 C13.464,20.034 13.794,19.854 14.022,19.602 C14.25,19.35 14.364,19.032 14.364,18.648 C14.364,18.312 14.268,18.024 14.076,17.784 C13.884,17.544 13.62,17.334 13.284,17.154 C12.948,16.974 12.576,16.812 12.168,16.668 C11.76,16.524 11.352,16.41 10.944,16.326 C10.536,16.242 10.14,16.152 9.756,16.056 C8.34,15.744 7.104,15.348 6.048,14.868 C4.992,14.388 4.11,13.818 3.402,13.158 C2.694,12.498 2.166,11.736 1.818,10.872 C1.47,10.008 1.296,9.036 1.296,7.956 C1.296,6.78 1.572,5.7 2.124,4.716 C2.676,3.732 3.408,2.886 4.32,2.178 C5.232,1.47 6.282,0.93 7.47,0.558 C8.658,0.186 9.9,0 11.196,0 C12.972,0 14.484,0.174 15.732,0.522 C16.98,0.87 18.03,1.368 18.882,2.016 C19.734,2.664 20.472,3.42 21.096,4.284 L16.848,8.388 C16.344,7.836 15.798,7.38 15.21,7.02 C14.622,6.66 14.016,6.39 13.392,6.21 C12.768,6.03 12.132,5.94 11.484,5.94 C10.884,5.94 10.362,6 9.918,6.12 C9.474,6.24 9.132,6.414 8.892,6.642 C8.652,6.87 8.532,7.176 8.532,7.56 C8.532,7.896 8.664,8.19 8.928,8.442 C9.192,8.694 9.528,8.904 9.936,9.072 C10.344,9.24 10.782,9.378 11.25,9.486 C11.718,9.594 12.144,9.684 12.528,9.756 C13.848,10.02 15.054,10.362 16.146,10.782 C17.238,11.202 18.192,11.73 19.008,12.366 C19.824,13.002 20.448,13.776 20.88,14.688 C21.312,15.6 21.528,16.668 21.528,17.892 C21.528,19.692 21.078,21.21 20.178,22.446 C19.278,23.682 18.066,24.618 16.542,25.254 C15.018,25.89 13.296,26.208 11.376,26.208 Z" id="Path"></path>
            <polygon id="Path" points="30.552 18.504 30.552 12.492 43.908 12.492 43.908 18.504"></polygon>
            <path d="M66.72,26.208 C64.752,26.208 62.94,25.884 61.284,25.236 C59.628,24.588 58.194,23.682 56.982,22.518 C55.77,21.354 54.834,19.974 54.174,18.378 C53.514,16.782 53.184,15.024 53.184,13.104 C53.184,11.208 53.526,9.462 54.21,7.866 C54.894,6.27 55.848,4.884 57.072,3.708 C58.296,2.532 59.748,1.62 61.428,0.972 C63.108,0.324 64.944,0 66.936,0 C68.136,0 69.306,0.15 70.446,0.45 C71.586,0.75 72.66,1.188 73.668,1.764 C74.676,2.34 75.576,3.06 76.368,3.924 L72.084,8.892 C71.676,8.436 71.22,8.028 70.716,7.668 C70.212,7.308 69.642,7.026 69.006,6.822 C68.37,6.618 67.668,6.516 66.9,6.516 C66.012,6.516 65.178,6.666 64.398,6.966 C63.618,7.266 62.94,7.704 62.364,8.28 C61.788,8.856 61.338,9.552 61.014,10.368 C60.69,11.184 60.528,12.12 60.528,13.176 C60.528,14.184 60.69,15.09 61.014,15.894 C61.338,16.698 61.806,17.382 62.418,17.946 C63.03,18.51 63.762,18.948 64.614,19.26 C65.466,19.572 66.42,19.728 67.476,19.728 C68.22,19.728 68.922,19.62 69.582,19.404 C70.242,19.188 70.848,18.9 71.4,18.54 C71.952,18.18 72.444,17.784 72.876,17.352 L76.26,22.716 C75.66,23.388 74.85,23.988 73.83,24.516 C72.81,25.044 71.682,25.458 70.446,25.758 C69.21,26.058 67.968,26.208 66.72,26.208 Z" id="Path"></path>
            <path d="M97.812,26.208 C95.868,26.208 94.08,25.884 92.448,25.236 C90.816,24.588 89.4,23.676 88.2,22.5 C87,21.324 86.07,19.938 85.41,18.342 C84.75,16.746 84.42,15 84.42,13.104 C84.42,11.184 84.75,9.432 85.41,7.848 C86.07,6.264 87,4.884 88.2,3.708 C89.4,2.532 90.816,1.62 92.448,0.972 C94.08,0.324 95.868,0 97.812,0 C99.756,0 101.538,0.324 103.158,0.972 C104.778,1.62 106.194,2.532 107.406,3.708 C108.618,4.884 109.548,6.264 110.196,7.848 C110.844,9.432 111.168,11.172 111.168,13.068 C111.168,14.988 110.844,16.746 110.196,18.342 C109.548,19.938 108.618,21.324 107.406,22.5 C106.194,23.676 104.778,24.588 103.158,25.236 C101.538,25.884 99.756,26.208 97.812,26.208 Z M97.812,19.584 C98.676,19.584 99.48,19.428 100.224,19.116 C100.968,18.804 101.616,18.354 102.168,17.766 C102.72,17.178 103.146,16.488 103.446,15.696 C103.746,14.904 103.896,14.04 103.896,13.104 C103.896,12.168 103.746,11.304 103.446,10.512 C103.146,9.72 102.72,9.03 102.168,8.442 C101.616,7.854 100.968,7.404 100.224,7.092 C99.48,6.78 98.676,6.624 97.812,6.624 C96.924,6.624 96.108,6.78 95.364,7.092 C94.62,7.404 93.972,7.854 93.42,8.442 C92.868,9.03 92.442,9.714 92.142,10.494 C91.842,11.274 91.692,12.144 91.692,13.104 C91.692,14.04 91.842,14.904 92.142,15.696 C92.442,16.488 92.868,17.178 93.42,17.766 C93.972,18.354 94.62,18.804 95.364,19.116 C96.108,19.428 96.924,19.584 97.812,19.584 Z" id="Shape"></path>
            <path d="M121.632,25.848 L121.632,0.648 L133.26,0.648 C134.964,0.648 136.488,0.996 137.832,1.692 C139.176,2.388 140.226,3.336 140.982,4.536 C141.738,5.736 142.116,7.116 142.116,8.676 C142.116,10.356 141.738,11.844 140.982,13.14 C140.226,14.436 139.176,15.45 137.832,16.182 C136.488,16.914 134.964,17.28 133.26,17.28 L128.328,17.28 L128.328,25.848 L121.632,25.848 Z M135.132,25.848 L128.724,14.472 L136.032,13.572 L143.16,25.848 L135.132,25.848 Z M128.328,12.168 L132.288,12.168 C132.912,12.168 133.434,12.042 133.854,11.79 C134.274,11.538 134.598,11.19 134.826,10.746 C135.054,10.302 135.168,9.78 135.168,9.18 C135.168,8.604 135.048,8.106 134.808,7.686 C134.568,7.266 134.214,6.942 133.746,6.714 C133.278,6.486 132.696,6.372 132,6.372 L128.328,6.372 L128.328,12.168 Z" id="Shape"></path>
            <path d="M153.012,25.848 L153.012,0.648 L171.336,0.648 L171.336,6.516 L159.852,6.516 L159.852,19.98 L171.876,19.98 L171.876,25.848 L153.012,25.848 Z M156.396,15.84 L156.396,10.296 L169.896,10.296 L169.896,15.84 L156.396,15.84 Z" id="Shape"></path>
        </g>
        <path d="M135.682866,97.2408757 L185.557866,117.391829 L187.185521,118.045314 L185.429866,128.010829 L184.351995,134.156834 L124.918521,158.168829 L128.603521,137.267829 L160.321866,124.452829 L132.841866,113.349876 L135.682866,97.2408757 Z M130.356533,47.04917 L126.671533,67.95017 L94.9531877,80.76517 L122.433188,91.8681237 L119.592188,107.977124 L69.7171877,87.82617 L68.0895327,87.1726855 L69.8451877,77.20717 L70.9230593,71.0611651 L130.356533,47.04917 Z" id="Combined-Shape" fill="#FFFFFF"></path>
    </g>
</svg>